<?xml version="1.0" standalone="no"?>
<!DOCTYPE svg PUBLIC "-//W3C//DTD SVG 20010904//EN"
 "http://www.w3.org/TR/2001/REC-SVG-20010904/DTD/svg10.dtd">
<svg version="1.0" xmlns="http://www.w3.org/2000/svg"
 width="700.000000pt" height="700.000000pt" viewBox="0 0 700.000000 700.000000"
 preserveAspectRatio="xMidYMid meet">
<metadata>
Created by potrace 1.11, written by Peter Selinger 2001-2013
</metadata>
<g transform="translate(0.000000,700.000000) scale(0.100000,-0.100000)"
fill="#000000" stroke="none">
<path d="M3230 6989 c-703 -57 -1372 -321 -1915 -756 -141 -112 -371 -337
-490 -478 -214 -254 -391 -537 -523 -835 -423 -960 -399 -2046 68 -2981 180
-359 371 -622 669 -919 396 -394 843 -670 1361 -840 375 -124 694 -174 1100
-174 258 0 353 7 580 45 983 162 1855 747 2392 1604 89 141 214 389 277 547
483 1216 253 2595 -600 3583 -96 112 -306 318 -419 412 -687 572 -1610 864
-2500 792z m-77 -113 c-3 -14 3 -70 12 -125 9 -55 14 -105 10 -111 -16 -25
-48 -6 -112 69 -37 43 -70 75 -72 69 -5 -15 20 -131 32 -146 13 -16 -6 -32
-39 -32 -27 0 -36 10 -24 25 11 13 -16 203 -32 223 -14 16 -10 19 26 24 27 3
38 -6 99 -80 39 -45 72 -81 74 -78 8 8 -20 142 -33 157 -18 20 -9 29 31 29 29
0 32 -3 28 -24z m-27 -404 c6 -4 73 -203 148 -442 76 -239 140 -437 142 -440
3 -2 64 -5 137 -7 373 -6 697 -104 1026 -311 l103 -64 23 23 c12 13 97 111
189 217 92 105 171 192 175 192 5 0 13 -6 19 -13 8 -10 -26 -70 -140 -247 -83
-129 -153 -240 -155 -247 -3 -6 40 -56 94 -110 256 -254 429 -556 520 -905
l26 -98 96 0 c53 0 280 -5 505 -10 314 -7 411 -12 417 -22 17 -27 49 -16 -810
-288 -85 -27 -158 -53 -161 -57 -4 -4 -12 -67 -18 -138 -17 -197 -69 -431
-127 -567 -5 -13 6 -23 56 -48 76 -39 141 -46 239 -27 63 13 77 13 89 2 12
-11 8 -15 -25 -20 -58 -10 -74 -18 -45 -23 46 -8 104 18 136 60 25 34 46 47
137 82 150 59 184 83 191 137 4 28 1 52 -9 70 -8 16 -14 38 -14 50 0 12 -8 31
-17 42 -17 18 -17 19 2 33 18 14 18 14 -3 14 -12 0 -26 9 -32 20 -6 11 -20 20
-32 20 -19 0 -20 -4 -15 -57 10 -94 -19 -44 -43 77 -30 146 -71 207 -148 217
-33 4 -42 2 -56 -18 -29 -42 -12 -81 22 -47 9 9 12 7 12 -9 0 -26 -25 -47 -45
-39 -8 3 -25 21 -36 41 -13 21 -28 34 -38 33 -11 -2 -16 4 -16 22 0 61 153 82
254 35 67 -32 172 -137 223 -224 85 -147 152 -318 173 -446 10 -58 -11 -33
-28 35 -15 59 -40 74 -45 27 -2 -15 -12 -32 -23 -37 -10 -6 -19 -15 -19 -21 0
-5 11 -2 25 7 14 9 31 14 39 11 23 -9 43 -95 34 -145 -4 -23 -12 -83 -17 -133
-6 -60 -14 -96 -25 -107 -22 -23 -31 -8 -16 28 8 19 10 48 6 77 -3 25 -2 51 3
57 4 6 11 21 14 33 4 18 -1 26 -24 37 -35 17 -60 11 -201 -48 -48 -20 -95 -36
-106 -36 -10 0 -40 -22 -68 -50 -47 -47 -78 -54 -55 -12 22 42 1 45 -34 5 -19
-23 -32 -28 -70 -28 -37 0 -50 -4 -59 -20 -19 -33 -40 -45 -68 -39 -19 4 -28
1 -29 -8 -1 -7 -2 -18 -3 -24 -3 -30 -51 -114 -71 -124 -28 -15 -48 -5 -40 21
9 27 -3 43 -20 29 -9 -7 -12 -22 -9 -40 6 -26 5 -27 -44 -32 -28 -3 -63 -13
-77 -22 l-27 -18 54 -48 c29 -27 56 -49 60 -50 4 0 31 -23 60 -51 108 -104
137 -117 139 -61 0 15 4 36 9 47 7 19 9 18 19 -8 6 -16 11 -38 11 -51 0 -12 7
-44 16 -69 19 -55 10 -73 -33 -75 -33 -1 -169 -17 -268 -32 -86 -13 -173 -54
-181 -86 -12 -48 -100 -36 -138 18 -19 27 -12 32 52 43 38 6 48 13 73 53 16
25 36 72 45 104 9 32 21 58 26 58 11 0 58 46 58 58 0 4 -18 19 -41 31 -40 23
-40 23 -62 3 -12 -11 -32 -23 -44 -27 -13 -3 -26 -17 -29 -31 -11 -43 -102
-91 -120 -63 -4 8 -2 15 7 17 27 9 159 156 148 166 -29 23 -87 56 -101 56 -9
0 -34 -21 -54 -46 -57 -69 -233 -217 -353 -297 -136 -90 -281 -160 -451 -217
l-135 -46 -6 -109 c-4 -61 -10 -303 -13 -540 -4 -236 -10 -438 -12 -447 -3
-10 -14 -18 -24 -18 -21 0 -13 -22 -170 475 -56 176 -120 379 -143 450 l-42
130 -160 7 c-183 7 -349 37 -521 93 -111 36 -299 122 -386 175 -27 17 -52 30
-58 30 -5 0 -113 -119 -241 -265 -127 -146 -237 -264 -243 -262 -6 2 -11 13
-10 23 0 11 83 149 184 308 l184 289 -49 41 c-195 161 -362 362 -475 571 -24
44 -44 81 -46 83 -1 2 -13 0 -27 -3 -19 -5 -29 -18 -39 -48 -12 -39 -16 -42
-48 -42 -30 0 -35 4 -38 25 -2 14 -7 28 -10 32 -4 4 -65 -2 -137 -12 -71 -11
-184 -27 -250 -36 -145 -20 -106 -14 -420 -59 -143 -20 -262 -39 -264 -41 -3
-2 -14 13 -27 33 l-22 38 54 480 c29 264 65 586 79 715 15 129 27 236 28 237
1 1 52 9 112 18 61 9 171 25 245 36 74 11 151 22 170 25 19 2 138 19 265 37
l230 33 40 99 c44 107 102 225 141 287 13 21 24 44 24 52 0 8 -96 98 -213 201
-116 103 -213 193 -215 201 -10 41 42 16 270 -130 l243 -156 40 48 c259 310
573 523 940 637 64 20 118 42 120 48 2 7 9 216 14 465 6 249 13 457 16 463 7
11 16 11 31 1z m3644 -2321 c0 -17 -8 -20 -52 -23 l-53 -3 0 -40 0 -40 42 3
c23 2 48 0 54 -4 18 -11 -11 -24 -53 -24 -41 0 -42 -2 -31 -64 l6 -38 41 7
c71 11 81 11 81 -5 0 -15 -89 -37 -163 -39 -30 -1 -32 1 -22 20 15 27 -7 194
-28 215 -27 28 -3 35 166 53 6 0 12 -8 12 -18z m-6285 -948 c-3 -10 -11 -56
-16 -103 -17 -151 -17 -150 -47 -150 -25 0 -30 7 -57 83 l-30 82 -7 -45 c-3
-25 -7 -61 -7 -81 -1 -23 -8 -43 -21 -54 -28 -25 -37 -14 -85 105 -21 52 -44
102 -52 111 -12 14 -12 17 2 23 36 13 65 7 65 -15 0 -11 12 -55 27 -97 21 -56
29 -70 31 -52 1 14 6 61 10 105 7 76 8 80 32 80 20 0 27 -8 42 -50 10 -27 26
-70 36 -95 l17 -45 5 75 c3 41 2 86 -3 98 -10 32 -2 42 35 42 25 0 29 -3 23
-17z m5824 -1015 c69 -82 114 -165 109 -200 -6 -46 -125 -77 -301 -78 -63 0
-92 6 -155 30 -138 54 -190 96 -150 121 24 16 48 10 48 -11 0 -12 -6 -20 -12
-19 -63 8 -40 -15 29 -30 32 -8 72 -20 90 -27 43 -19 55 -18 51 8 -4 26 28 36
138 41 55 2 77 8 99 25 15 12 33 22 39 22 6 0 3 5 -7 11 -14 8 -24 4 -48 -21
-40 -39 -49 -32 -15 13 14 18 32 52 40 76 14 39 14 43 -3 60 -10 10 -24 20
-32 23 -13 4 -4 28 11 28 5 0 36 -33 69 -72z m-1385 -110 c3 -17 4 -33 2 -35
-2 -3 -24 -7 -48 -10 -24 -3 -53 -14 -65 -25 -12 -11 -28 -18 -35 -16 -16 6
53 78 74 78 8 0 23 9 33 20 25 27 31 25 39 -12z m160 -344 c11 -29 6 -33 -24
-23 -16 6 -30 14 -30 18 0 25 45 29 54 5z m-1019 -1294 c0 -10 -11 -15 -35
-16 -70 -2 -72 -2 -68 -31 3 -24 11 -30 57 -45 73 -24 83 -33 79 -82 -4 -48
-23 -61 -105 -72 -50 -6 -53 -5 -53 15 0 19 6 21 55 21 42 0 57 4 62 16 10 27
-11 48 -63 63 -61 16 -84 36 -84 71 0 26 29 61 60 73 30 12 95 3 95 -13z"/>
<path d="M3117 6200 c-3 -47 -9 -214 -11 -373 l-5 -287 22 4 c12 3 39 8 60 11
34 5 37 9 37 38 -1 18 -22 181 -49 362 l-48 330 -6 -85z"/>
<path d="M3462 5438 c3 -20 10 -23 53 -25 123 -6 287 -25 370 -43 202 -44 413
-131 589 -243 84 -53 91 -56 108 -41 9 9 15 20 12 25 -11 18 -195 125 -299
175 -231 109 -514 174 -760 174 -73 0 -76 -1 -73 -22z"/>
<path d="M3165 5423 c-11 -2 -30 -6 -42 -9 -16 -3 -23 -12 -23 -29 0 -28 3
-29 85 -12 50 11 61 17 63 35 3 19 -1 22 -30 21 -18 -1 -42 -3 -53 -6z"/>
<path d="M2992 5380 c-329 -97 -685 -336 -874 -586 -34 -45 -39 -57 -27 -65 8
-5 16 -9 19 -9 3 0 54 52 113 115 59 63 140 141 180 173 160 131 370 246 570
312 87 28 97 34 97 56 0 28 3 28 -78 4z"/>
<path d="M3512 5279 c3 -8 54 -167 113 -354 59 -187 110 -346 114 -353 5 -9
19 7 40 47 32 61 32 61 77 61 l45 0 -3 66 c-2 62 -1 67 27 91 26 23 35 25 87
20 l58 -5 0 42 c0 54 21 84 68 92 20 4 57 20 80 37 55 37 112 46 148 22 14 -9
28 -14 31 -12 8 8 -73 56 -172 103 -193 90 -399 142 -599 151 -100 5 -118 4
-114 -8z"/>
<path d="M3162 5255 c-30 -7 -56 -16 -60 -20 -7 -7 -24 -756 -18 -763 4 -3 41
2 215 27 35 6 65 12 68 15 4 4 -90 677 -102 734 -6 25 -22 27 -103 7z"/>
<path d="M2955 5194 c-217 -76 -417 -205 -602 -389 -73 -73 -133 -139 -133
-146 1 -23 380 -258 410 -254 14 2 113 15 221 31 l196 27 6 255 c4 140 7 311
7 379 0 142 7 136 -105 97z"/>
<path d="M4607 5073 c-4 -3 -7 -12 -7 -20 0 -11 4 -11 20 -1 11 7 20 16 20 20
0 10 -24 10 -33 1z"/>
<path d="M4700 4990 c-9 -17 -1 -29 65 -95 143 -143 247 -288 340 -475 49 -97
135 -330 135 -364 0 -20 39 -41 51 -29 6 6 -1 45 -16 99 -88 308 -228 552
-445 777 -101 105 -115 115 -130 87z"/>
<path d="M4460 4986 c0 -9 5 -16 10 -16 6 0 10 4 10 9 0 6 -4 13 -10 16 -5 3
-10 -1 -10 -9z"/>
<path d="M4495 4940 c-14 -15 -16 -25 -8 -41 9 -21 10 -21 30 12 30 47 14 69
-22 29z"/>
<path d="M4588 4817 c-28 -42 -28 -42 -8 -56 l21 -14 -22 -23 c-22 -24 -22
-24 -2 -24 11 0 37 -11 57 -25 20 -14 48 -25 62 -25 25 0 74 43 74 65 0 15
-130 145 -144 145 -6 0 -23 -19 -38 -43z"/>
<path d="M1848 4781 c29 -28 58 -51 63 -51 22 0 4 20 -53 59 l-63 43 53 -51z"/>
<path d="M2005 4651 c-7 -13 32 -34 46 -26 7 5 6 11 -2 21 -13 16 -35 18 -44
5z"/>
<path d="M1946 4547 c-51 -90 -128 -258 -122 -264 3 -3 15 -3 28 1 31 9 173
293 156 313 -18 22 -26 15 -62 -50z"/>
<path d="M4850 4584 c-8 -8 -16 -31 -19 -51 -7 -41 -30 -56 -38 -24 -7 27 -23
27 -23 1 0 -22 -28 -40 -61 -40 -13 0 -40 -12 -60 -26 -28 -19 -36 -30 -31
-46 5 -19 2 -21 -27 -15 -23 5 -42 2 -62 -10 -37 -22 -37 -33 2 -33 27 0 31
-3 26 -21 -3 -12 0 -22 9 -26 23 -9 16 -30 -16 -43 -35 -14 -38 -26 -10 -35
33 -11 23 -28 -12 -22 -26 5 -45 -1 -88 -27 -30 -18 -54 -39 -52 -45 1 -7 -4
-19 -12 -26 -8 -8 -12 -24 -9 -35 5 -18 13 -20 107 -20 55 0 226 -3 378 -7
l278 -6 -20 71 c-39 140 -115 309 -196 435 -24 37 -45 67 -48 67 -2 0 -9 -7
-16 -16z"/>
<path d="M2135 4549 c-4 -6 -5 -12 -4 -13 2 -2 49 -42 103 -90 59 -51 105 -85
114 -81 7 3 23 5 34 5 14 0 -22 33 -105 95 -70 52 -129 95 -131 95 -3 0 -8 -5
-11 -11z"/>
<path d="M2082 4453 c-32 -50 -73 -135 -68 -141 3 -2 116 15 240 36 l38 7 -82
70 c-45 39 -85 71 -90 73 -4 1 -21 -19 -38 -45z"/>
<path d="M4416 3973 c4 -28 2 -43 -7 -49 -8 -4 -15 -2 -17 5 -3 8 -16 26 -31
42 -20 22 -30 27 -41 19 -13 -9 -13 -12 1 -23 25 -19 51 -87 44 -118 -5 -21 0
-32 25 -52 26 -22 35 -25 56 -16 25 9 26 8 20 -18 -7 -24 -6 -25 9 -13 14 12
18 12 26 -1 5 -8 9 -17 9 -22 0 -4 19 -5 43 -1 78 10 87 14 87 34 0 21 -24 28
-35 10 -15 -25 -34 -7 -44 41 -6 29 -9 54 -7 56 3 3 20 -6 38 -20 20 -16 46
-25 64 -25 16 1 39 -4 51 -10 11 -6 23 -8 27 -5 3 4 19 -5 34 -20 l28 -27 184
26 c102 14 186 26 186 27 7 7 -30 173 -39 179 -7 4 -86 8 -177 8 -91 0 -250 3
-353 7 l-188 6 7 -40z"/>
<path d="M5264 3943 c15 -104 18 -113 37 -113 28 0 32 16 19 90 -11 65 -14 70
-37 70 -24 0 -25 -2 -19 -47z"/>
<path d="M5445 3943 c10 -74 15 -83 38 -83 42 0 733 94 762 104 17 5 -225 15
-523 21 l-283 5 6 -47z"/>
<path d="M4311 3873 c0 -5 4 -17 9 -28 8 -18 9 -17 9 8 1 15 -3 27 -9 27 -5 0
-10 -3 -9 -7z"/>
<path d="M5297 3593 c-3 -5 -10 -57 -16 -118 -6 -60 -20 -152 -30 -202 -16
-74 -17 -99 -8 -123 6 -16 15 -30 18 -30 20 0 79 329 79 438 0 35 -3 42 -19
42 -11 0 -22 -3 -24 -7z"/>
<path d="M5091 3526 c-42 -14 -65 -28 -67 -39 -5 -35 18 -88 46 -109 17 -12
30 -25 30 -29 0 -4 -13 -21 -30 -39 -36 -39 -37 -50 -7 -78 51 -48 63 -29 92
148 16 103 19 170 8 169 -5 0 -37 -11 -72 -23z"/>
<path d="M3708 3092 c-56 -10 -88 -20 -88 -28 0 -31 147 -1015 156 -1045 4
-14 14 -13 98 5 l94 20 6 166 c3 91 7 282 8 425 l3 260 -36 -3 -37 -3 -17 96
c-24 134 -28 136 -187 107z"/>
<path d="M3175 3013 c-26 -4 -55 -37 -220 -260 -312 -420 -357 -485 -345 -497
7 -7 15 -7 25 -1 7 6 156 174 331 374 232 267 309 362 291 357 -20 -5 -27 -2
-32 14 -3 11 -9 19 -13 18 -4 0 -20 -3 -37 -5z"/>
<path d="M2760 2953 c-52 -8 -97 -19 -100 -24 -4 -5 -26 -8 -51 -7 -24 1 -153
-18 -287 -42 -202 -37 -242 -46 -237 -59 13 -34 121 -185 197 -276 87 -105
191 -198 215 -193 12 2 403 599 403 614 0 6 -37 2 -140 -13z"/>
<path d="M2939 2552 c-243 -279 -275 -319 -262 -333 18 -21 161 -92 248 -123
102 -36 238 -73 334 -91 77 -14 241 -21 241 -10 0 18 -278 875 -283 875 -1 0
-126 -143 -278 -318z"/>
<path d="M1910 2802 c0 -18 103 -180 171 -268 38 -51 126 -146 195 -213 102
-99 128 -120 140 -110 8 6 14 16 14 21 0 6 -54 62 -120 125 -120 115 -243 266
-302 369 -30 54 -61 84 -85 84 -7 0 -13 -4 -13 -8z"/>
<path d="M5030 2725 c0 -1 5 -17 11 -34 l12 -33 18 29 c25 37 24 38 -11 39
-17 1 -30 0 -30 -1z"/>
<path d="M4016 2593 c-8 -149 -12 -521 -5 -528 16 -15 274 99 387 172 l53 33
-23 32 c-17 24 -24 50 -26 100 l-4 68 -33 0 c-47 0 -82 22 -155 94 -46 47 -78
70 -112 82 -26 8 -54 24 -62 35 -12 17 -14 7 -20 -88z"/>
<path d="M4990 2594 c0 -14 3 -14 15 -4 8 7 15 14 15 16 0 2 -7 4 -15 4 -8 0
-15 -7 -15 -16z"/>
<path d="M5157 2586 c-12 -14 -32 -42 -44 -64 l-22 -39 55 -47 54 -47 -1 28
c0 15 -8 59 -18 97 -17 67 -17 69 0 73 11 3 19 9 19 14 0 17 -21 9 -43 -15z"/>
<path d="M4920 2554 c0 -7 27 -34 34 -34 13 0 5 16 -14 28 -11 7 -20 10 -20 6z"/>
<path d="M5076 2443 c-11 -12 -6 -19 43 -56 49 -37 61 -43 61 -29 0 12 -97 92
-104 85z"/>
<path d="M4798 2415 c-6 -14 -15 -25 -20 -25 -4 0 -16 -8 -27 -19 -17 -17 -17
-20 -2 -40 l16 -21 38 38 c31 32 37 44 31 66 -8 33 -21 33 -36 1z"/>
<path d="M4653 2282 c-8 -5 -3 -12 18 -19 26 -10 30 -10 27 5 -4 19 -27 26
-45 14z"/>
<path d="M4546 2177 c-4 -9 -8 -24 -11 -33 -4 -12 -14 -15 -43 -11 -30 3 -50
-3 -104 -35 -81 -47 -130 -69 -273 -122 -90 -34 -111 -46 -113 -64 -5 -30 9
-29 125 13 121 44 275 119 371 180 76 49 77 51 62 75 -8 12 -10 12 -14 -3z"/>
<path d="M2517 2173 c-10 -9 -8 -43 2 -43 5 0 14 6 20 14 8 10 8 16 -2 25 -8
6 -17 8 -20 4z"/>
<path d="M2567 2123 c-19 -18 3 -36 121 -96 146 -75 315 -136 458 -166 106
-21 274 -41 356 -41 45 0 49 2 46 22 -3 22 -10 23 -146 35 -258 21 -443 72
-668 183 -143 71 -155 75 -167 63z"/>
<path d="M2384 1993 c-48 -61 -77 -104 -72 -108 6 -6 118 124 118 136 0 19
-18 8 -46 -28z"/>
<path d="M3857 1905 c-65 -14 -72 -18 -64 -40 7 -18 31 -18 112 -2 50 11 61
17 63 35 3 18 -1 22 -25 21 -15 -1 -54 -7 -86 -14z"/>
<path d="M3863 1727 c-24 -5 -43 -15 -43 -21 -1 -6 25 -193 57 -416 46 -324
59 -397 65 -365 4 22 11 214 15 428 l8 387 -30 -1 c-16 -1 -49 -6 -72 -12z"/>
</g>
</svg>
