<svg id="Layer_1" data-name="Layer 1" xmlns="http://www.w3.org/2000/svg" width="1070.0933" height="1079.4749" viewBox="0 0 1070.0933 1079.4749">
  <title>compass</title>
  <g>
    <path d="M1014.2263,549.6974c6.3958,1.1014,12.2575,2.1418,18.13,3.1165q35.3678,5.87,70.7416,11.7043,31.09,5.1231,62.1874,10.2057c1.7866.2936,3.55.7523,5.3447.9659,2.3725.2824,4.4156,1.0379,4.5295,3.75.113,2.69-1.7038,3.637-4.17,4.0206-5.5448.8624-11.0505,1.9726-16.589,2.8791-14.6543,2.3985-29.3241,4.7009-43.975,7.1189-16.2583,2.6833-32.4981,5.4776-48.7538,8.1768q-23.5819,3.9159-47.1858,7.6967c-2.3948.38-3.323,1.4635-3.6942,3.8174a312.6158,312.6158,0,0,1-35.0809,102.9586,274.0788,274.0788,0,0,1-24.64,37.794c-6.9853,8.7931-14.4575,17.2-21.7279,25.7657-1.2632,1.4882-2.601,2.9132-4.0815,4.5651,2.0222,2.6073,3.6786,4.9629,5.5552,7.1275q22.9729,26.4983,46.0071,52.9434c6.2926,7.2567,12.468,14.6149,18.736,21.8931,3.4582,4.0155,3.08,5.3725-2.5191,7.6776-7.2194-6.1214-14.5644-12.29-21.8447-18.5342q-23.1072-19.8191-46.1534-39.71c-4.3927-3.79-8.7185-7.6592-13.0329-11.5387-3.93-3.5336-3.9466-3.614-7.932-.423a364.7794,364.7794,0,0,1-41.2734,29.1729,303.0371,303.0371,0,0,1-89.0193,35.7209c-10.7591,2.4157-21.73,3.9156-32.6312,5.6594-4.7433.7586-5.249,1.1094-6.0571,5.9459-3.8494,23.0392-7.7988,46.0618-11.6069,69.1077-3.484,21.0835-6.8193,42.1916-10.2465,63.2846q-2.7012,16.6237-5.5191,33.2284a33.8519,33.8519,0,0,1-1.3657,4.4494c-5.56.8879-6.1273.5123-6.9053-4.1613q-8.6079-51.7125-17.2138-103.4253c-3.4529-20.9041-6.7845-41.8284-10.1572-62.7458-.7281-4.5156-1.3395-5.2371-5.1419-5.6421a285.0972,285.0972,0,0,1-59.8631-13.2276,307.2733,307.2733,0,0,1-97.9209-53.309c-2.1088-1.7153-4.1667-3.4936-6.2884-5.1926-2.6081-2.0885-3.5391-2.0928-6.1311.1288-7.9794,6.8388-15.9193,13.7239-23.8879,20.5753q-18.55,15.95-37.1118,31.8855-9.6828,8.3459-19.2581,16.8157c-1.749,1.55-3.3039,3.0034-5.54.8019-1.9678-1.9377-1.9576-3.46.3046-6.0838q17.7534-20.595,35.5363-41.1646C458.5966,811.7649,470.3692,798,482.5563,783.79c-1.1393-1.28-2.2494-2.6266-3.461-3.8744a299.0957,299.0957,0,0,1-46.325-62.908,311.1827,311.1827,0,0,1-33.8019-93.193c-.6563-3.3754-1.0956-6.7962-1.5413-10.2082-.3306-2.5309-1.6812-3.7985-4.1945-4.2054q-23.3288-3.777-46.6395-7.6655c-14.4695-2.4-28.9289-4.8606-43.4017-7.2406q-28.1451-4.6284-56.3032-9.1788c-3.394-.5548-6.7756-1.1861-10.1627-1.7829-2.3444-.413-4.8136-.5773-4.8082-3.9583.0053-3.3176,2.247-3.549,4.73-3.9487,12.8713-2.0715,25.7226-4.2662,38.5839-6.4q27.8684-4.6236,55.7411-9.22,28.6774-4.72,57.3593-9.4146c1.7672-.2918,3.4984-.8024,5.4044-1.2484.5148-4.503,1.09-8.7816,1.4814-13.077,3.7834-41.5749,15.9335-80.6338,35.6225-117.3483a290.2779,290.2779,0,0,1,35.8183-52.4725c2.9034-3.371,4.0968-5.07.2972-9.16-8.134-8.755-15.6056-18.124-23.3812-27.2134q-15.9022-18.5889-31.8538-37.1355c-.2363-.2754-.4894-.5367-.74-.7991-1.5605-1.6307-2.2042-3.3762-.4673-5.2619,1.4789-1.6056,3.656-1.5857,5.8188.2,3.0731,2.5377,6.021,5.2266,9.045,7.8245q18.559,15.9438,37.1268,31.8776c7.268,6.261,14.4811,12.5855,22.1308,19.24,3.5619-3.105,7.1408-6.065,10.5421-9.2167A302.0329,302.0329,0,0,1,551.45,296.0364a297.1236,297.1236,0,0,1,83.4374-32.2647c12.1788-2.6832,24.5965-4.3271,36.9505-6.136,2.9044-.4252,4.1375-1.5221,4.5716-4.2444q4.4059-27.6293,8.9248-55.2406c3.4222-20.725,6.9535-41.432,10.4158-62.15,1.2539-7.5027,2.44-15.0167,3.6719-22.5231a8.01,8.01,0,0,1,.7293-3.1307c.6288-.92,1.8093-2.0128,2.7616-2.0241a5.9958,5.9958,0,0,1,3.6605,1.591,5.3748,5.3748,0,0,1,1.1037,3.0051c2.6775,16.4438,5.29,32.8981,7.9615,49.3429q3.3105,20.3784,6.7153,40.7414c2.7986,16.79,5.7082,33.5627,8.38,50.373.4635,2.9162,1.62,3.9144,4.484,4.1836a297.0817,297.0817,0,0,1,54.38,10.29,306.4329,306.4329,0,0,1,53.64,20.9966,298.88,298.88,0,0,1,63.14,42.254c5.4177,4.7691,10.7409,9.6456,16.3216,14.6655,3.8423-3.2589,7.5647-6.3718,11.2392-9.54q28.209-24.3243,56.3974-48.6727a15.1444,15.1444,0,0,1,1.2313-1.0719c1.7914-1.2344,3.3838-.8634,4.8714.6059,1.5945,1.5748,1.5551,3.0726.0962,4.75-4.1636,4.7874-8.2447,9.6466-12.3974,14.4436Q961.8944,331.9752,939.63,357.652c-2.6125,3.0186-2.554,3.6969.1785,6.9093a311.9108,311.9108,0,0,1,54.9437,93.3092c8.1889,21.8427,13.5057,44.364,16.97,67.3536C1012.9047,533.0759,1013.3625,541.037,1014.2263,549.6974ZM460.6155,827.3941l1.0987-1.0774,1.0943-1.084c3.6543-.8418,5.4094-3.9694,7.727-6.42a3.4881,3.4881,0,0,0,.0989-1.0449l1.0689-1.0738c4.7071-1.1028,7.1939-5.2423,10.7167-7.9472,4.1346-3.1747,8.0158-6.6947,11.8369-10.2477.6428-.5975.4259-2.12.6062-3.2147-1-.0591-2.4487-.579-2.9333-.1078-7.0575,6.8628-14.7938,13.0823-20.5213,21.2292q-.5411.55-1.08,1.1028L468.94,818.656c-2.9709,1.3263-5.2995,3.2521-6.1358,6.5715l-1.0833,1.095q-.5388.55-1.078,1.0994l-.2747.4353ZM454.11,333.6789l1.0987,1.0979,1.0521,2.2077,2.1235,2.2269c.0762.3532.0406.799.2452,1.0457q6.745,8.1354,13.5526,16.219a2.8522,2.8522,0,0,0,1.33.9007c.47.1276,1.2614.12,1.4961-.1675.402-.4925.8276-1.4053.6222-1.8627a9.29,9.29,0,0,0-1.9422-2.5626c-3.8222-3.8761-7.639-7.76-11.5669-11.5274a18.8537,18.8537,0,0,0-3.5812-2.1859q-1.1311-1.05-2.2624-2.1-.56-1.0713-1.119-2.1427l-1.1011-1.0975-1.0892-1.0906-1.087-1.0922-.3893-.2483.4336.2047,1.0933,1.0862Zm496.933-5.4374q.1293-.2163.2588-.4326-.1124.2332-.2251.4663l-1.0958,1.0931q-.5457.5406-1.0919,1.0811l-1.1266,1.0493-2.158,1.0851q-.53,1.1211-1.0595,2.2421c-1.3111.4466-2.8949.5674-3.8859,1.3965-4.1487,3.4709-8.1509,7.12-12.1332,10.7842a27.1315,27.1315,0,0,0-2.6393,3.3888c1.1547.3475,1.9156.7749,2.0945.6016,5.54-5.3681,11.0238-10.7949,16.5164-16.2126l1.132-1.0457q1.0926-1.0937,2.1845-2.1878l1.0553-1.1214q.5406-.5457,1.0814-1.0913Q950.497,328.79,951.0432,328.2415Zm-4.38,490.9841c2.0007,3.9573,5.3055,6.5294,9.0406,8.6831-2.0363-4.2883-5.3908-7.393-8.8078-10.4439q-.49-.1326-.9872-.238-11.28-13.8374-22.573-27.6644c-1.0054-1.227-2.2914-1.8891-3.7545-.6537-1.6584,1.4-1.2339,2.8128.1158,4.1674.3838.3851.7586.7793,1.141,1.1658,7.2656,7.3432,14.5143,14.7034,21.8247,22.0017a11.9172,11.9172,0,0,0,2.7487,1.5746Q946.0373,818.522,946.6632,819.2256ZM887.3969,376.313c-41.9252-39.8159-90.7771-63.3006-147.3248-71.7244a8.3289,8.3289,0,0,0-.42,2.3563q13.8008,84.0843,27.6961,168.153a11.96,11.96,0,0,0,1.2288,2.6446,11.2657,11.2657,0,0,0,2.556-1.1964C809.6738,443.3507,848.19,410.1272,887.3969,376.313Zm-367.4348.0414c2.4735,2.2991,4.3936,4.1891,6.4252,5.95,4.2424,3.6779,8.5652,7.2629,12.8163,10.9309,8.78,7.5757,17.5075,15.2115,26.3048,22.7666,14.0178,12.0385,28.1016,24,42.1058,36.0546,9.3388,8.0386,18.5706,16.2016,27.9065,24.2436.83.7154,2.0769.948,3.65,1.63,4.86-29.18,9.6988-57.7205,14.3484-86.2919,4.6619-28.6464,9.5805-57.2548,14.1944-86.7951-25.8471,2.9853-49.4575,10.2036-72.1893,20.3735A262.664,262.664,0,0,0,519.9621,376.3544ZM803.93,515.09l162.7948,26.8821c-2.5874-31.7512-11.22-60.8457-24.0823-88.847-9.1657-19.9539-29.4277-50.6281-37.3276-55.666ZM501.9184,397.6079c-8.886,5.5105-30.0473,38.6174-41.3779,65.0635a252.1732,252.1732,0,0,0-19.8449,79.2543l162.4359-26.8316Zm392.5978,351.42c12.1855-11.8723,21.86-24.7072,30.6229-38.1654a260.41,260.41,0,0,0,37.8075-93.089c-53,8.9316-105.3866,17.3385-158.9862,26.3729C834.5335,679.6259,864.1773,714.1616,894.5162,749.0276Zm-381.778-.7582a32.9461,32.9461,0,0,0,2.9694-2.67q14.2263-16.4238,28.3925-32.9,15.95-18.5169,31.8913-37.0417c7.6894-8.9118,15.4407-17.77,23.0912-26.7151a38.4931,38.4931,0,0,0,3.017-5.0485c-26.8179-4.384-52.6645-8.5168-78.4766-12.8549-25.9443-4.36-51.8788-8.7663-77.9105-12.8943C443.3117,645.147,487.1179,729.98,512.7382,748.2694Zm231.6379,79.204c3.5494-.5187,6.6-.8234,9.591-1.4228A269.1047,269.1047,0,0,0,867.1777,774.3a65.7779,65.7779,0,0,0,4.8751-4.667L768.8113,680.6238a22.6051,22.6051,0,0,0-1.2214,3.2429q-11.7983,70.4023-23.5238,140.8171A12.9645,12.9645,0,0,0,744.3761,827.4734Zm-81.4229-.5031c-1.2539-15.9395-22.6517-141.4464-25.0694-145.99L535.6054,769.1074C551.3057,790.8861,632.0314,827.4541,662.9532,826.97Zm37.2533-525.11c-8.4617.5264-16.3787.986-24.29,1.5286-2.82.1935-3.3491,2.48-3.7172,4.6559q-2.81,16.6056-5.51,33.23c-3.78,23.237-7.4674,46.489-11.3112,69.7153-3.755,22.6889-7.6517,45.3544-11.5022,68.0274a6.28,6.28,0,0,0,2.4267,6.6c14.6658,12.4127,29.1262,25.0677,43.682,37.6106,3.0648,2.641,6.244,5.1491,10.2223,8.4184ZM443.4374,612.2755a32.8014,32.8014,0,0,0,4.04,1.2629q20.6271,3.4382,41.2694,6.7858,24.9263,4.0673,49.8555,8.1166c21.2583,3.4923,42.5314,6.9035,63.7438,10.6571,3.433.6074,5.4282-.2281,7.4715-2.6751,4.6451-5.5628,9.4306-11.0089,14.1828-16.4819q15.1524-17.45,30.2959-34.9081a13.1082,13.1082,0,0,0,1.4672-3.2411,10.4124,10.4124,0,0,0-2.0486-.5414q-104.8674.0111-209.7347.0756a15.7594,15.7594,0,0,0-2.6719.3933c-.16.0281-.2968.1978-.4386.3093s-.2759.2317-.8889.75A181.4166,181.4166,0,0,0,443.4374,612.2755Zm524.4605-35.2671c-.1585-9.6569-.3272-18.3027-.4276-26.9492-.0348-2.9955-2.1329-3.4109-4.3668-3.7825-21.6062-3.5933-43.2046-7.2344-64.8188-10.7784-29.8324-4.8914-59.7286-9.4221-89.4765-14.7785-6.822-1.2284-10.77.66-14.8577,5.5383-12.8005,15.2785-25.9023,30.3045-38.8637,45.4486-.8371.9781-1.4737,2.1279-2.68,3.8967ZM706.68,627.7626c-1.4537,5.7719-1.25,198.6251.3177,203.2861l30.9976-2.3453a54.853,54.853,0,0,0,1.494-5.3148q3.8848-23.2948,7.6715-46.6058c5.242-32.152,10.3816-64.3211,15.8306-96.4378.5569-3.2823-.2547-5.0758-2.5121-6.9771q-10.8041-9.1-21.4784-18.3532c-8.7736-7.5767-17.4828-15.228-26.2726-22.7857C710.8846,630.6435,708.8115,629.3245,706.68,627.7626ZM503.79,391.999c1.21,1.6459,1.5985,2.2561,2.0659,2.7984q10.9968,12.76,22.008,25.5073,15.5835,18.1264,31.1357,36.28c7.6836,8.9174,15.4581,17.7564,23.14,26.6748q15.6007,18.1107,31.1234,36.2884,11.4915,13.4055,22.9844,26.81c7.9169,9.1939,15.8958,18.3346,23.7864,27.5509a7.3585,7.3585,0,0,0,6.102,2.8445c8.71-.0663,17.4206.0888,26.1311.0923a14.8335,14.8335,0,0,0,2.9677-.52L507.78,389.161ZM705.9332,572.3064c4.5935-2.6411,185.9489-183.9426,189.109-189.1159l-3.5534-3.4666c-1.8884,1.3434-2.956,1.9793-3.88,2.78-6.5743,5.6967-13.084,11.468-19.6813,17.1376-11.68,10.0377-23.43,19.9947-35.1092,30.0338-9.0721,7.7982-18.06,15.6938-27.1226,23.5032C793.48,463.7047,781.2151,474.1719,769,484.6974c-8.7854,7.57-17.4934,15.23-26.2916,22.785-11.2716,9.6788-22.6089,19.281-33.8809,28.9592a5.0566,5.0566,0,0,0-1.8294,2.5825C705.311,549.941,706.065,560.8918,705.9332,572.3064Zm5.8965,9.866c3.2858,5.3421,167.8526,171.0608,173.8043,175.2414,5.2825-3.6121,5.72-4.78,2.7793-8.196Q874.0572,732.5441,859.621,715.94c-8.4388-9.7049-17.0033-19.3011-25.38-29.0587-16.1618-18.8255-32.1774-37.7765-48.3545-56.5887-12.99-15.1063-26.1935-30.03-39.1267-45.1845a6.9761,6.9761,0,0,0-5.9779-2.8111c-5.4432.0565-10.8883-.0867-16.3327-.1194C720.3532,582.1526,716.2572,582.1724,711.83,582.1724ZM531.5776,766.4638c2.6462-2.4359,5.094-4.8261,7.6841-7.0508,14.2859-12.27,28.63-24.4722,42.9069-36.7529,9.3389-8.0332,18.5579-16.2059,27.9006-24.2347,14.1452-12.156,28.3922-24.1936,42.52-36.3693,15.094-13.0078,30.0568-26.1683,45.2005-39.1176a6.72,6.72,0,0,0,2.7117-5.4871c.1371-5.7917.6763-11.5766.7272-17.3671.0355-4.0422.79-8.1945-.6792-12.2974-4.9572,3.2722-172.215,170.9012-174.2622,174.6373a24.7357,24.7357,0,0,0,1.9127,1.76C529.1853,764.9276,530.2447,765.5725,531.5776,766.4638Zm174.4218,254.8654.7152.0924c8.0034-48.4284,16.0067-96.8569,24.1279-145.9979l-24.8431,1.3734ZM259.3515,581.5705c45.3056,8.4738,90.7886,15.9327,136.9721,23.5554-.789-8.4169-1.488-15.8732-2.2082-23.5554Zm641.872-217.0821,6.509-5.6271C859.0812,312.147,802.003,285.3328,736.117,277.3331a7.0988,7.0988,0,0,0-.7976,1.3989,7.2184,7.2184,0,0,0-.12,1.6156c.1021,5.346.6117,5.8672,5.7962,6.4417,2.5172.2789,5.0187.7037,7.5244,1.0814a253.5823,253.5823,0,0,1,45.8677,11.2717,281.9786,281.9786,0,0,1,48.5761,21.8527,274.8355,274.8355,0,0,1,46.4187,33.1125C893.1369,357.4811,896.9713,360.7652,901.2235,364.4884Zm-229.2893-86.743c-71.1357,6.0166-139.4751,46.4522-171.3944,82.0231l5.4236,4.8532c1.308-1.0662,2.1487-1.7233,2.9589-2.4163,7.5718-6.4761,14.8827-13.2888,22.7542-19.377a275.475,275.475,0,0,1,78.5487-42.5924,270.552,270.552,0,0,1,56.9842-13.5208c3.4957-.4157,4.2932-1.2461,4.7022-4.7921A40.0378,40.0378,0,0,0,671.9342,277.7454ZM993.3521,546.4105c0-3.7395.2732-6.4662-.0538-9.119-.8182-6.6351-1.8513-13.2457-2.9-19.85-4.4959-28.3123-13.5648-55.17-26.226-80.8116a289.4191,289.4191,0,0,0-35.0029-54.23,82.0791,82.0791,0,0,0-5.993-5.9733l-5.0328,6.4391C957.5584,430.0512,979.94,483.8732,985.1784,545Zm155.6621,30.5432-134.4489-22.2126v21.5853C1022.8742,577.8258,1132.4992,578.7839,1149.0142,576.9537Zm-665.42-200.3024c-41.3894,49.16-64.5331,105.204-69.6288,169.8068l8.2709-1.6256q8.2083-92.05,66.94-161.92c-1.4577-1.8189-2.4573-3.0979-3.4961-4.3442C485.3443,378.1641,484.9049,377.8456,483.5946,376.6513ZM911.9,769.1681c28.7211-29.0916,49.3553-62.3158,63.7163-99.4386,6.9028-17.8434,12.2344-36.2224,14.7376-55.32-7.7416-1.1532-8.51-.6185-9.7748,6.0446-.5737,3.0226-1.1809,6.0409-1.863,9.0407a277.2783,277.2783,0,0,1-28.1045,73.443,262.984,262.984,0,0,1-34.3295,48.863c-3.3534,3.7186-6.5723,7.5583-9.99,11.5006C908.2214,765.32,909.81,766.9824,911.9,769.1681ZM417.2559,614.3687c10.5187,59.449,36.4246,110.6544,77.8348,154.0858,6.0124-4.2987,6.0084-5.1364,2.01-9.81-6.7132-7.8477-13.4713-15.6829-19.7211-23.8959a278.63,278.63,0,0,1-50.4508-113.97C425.8788,615.3066,425.038,612.8439,417.2559,614.3687ZM739.73,854.7742c57.766-7.7887,108.3873-29.8834,152.5456-67.1035-4.74-5.994-5.838-5.9476-10.8616-2.2487-9.76,7.1862-19.4632,14.5094-29.6853,20.9949-28.2892,17.9483-59.09,29.7933-91.907,36.42-5.492,1.1088-11.0033,2.1472-16.5385,3.0072-2.4545.3813-3.5038,1.6109-3.5484,3.9371C739.7077,851.1732,739.73,852.5663,739.73,854.7742ZM515.5532,787.5009c44.1824,37.2527,94.517,59.4115,151.4805,67.0748.9289-7.3464.2851-8.2851-5.9913-9.4076-5.879-1.0514-11.8137-1.8471-17.6365-3.147A283.0634,283.0634,0,0,1,564.43,811.8142,265.94,265.94,0,0,1,525.4768,785.05C521.0639,781.367,519.6359,781.5455,515.5532,787.5009ZM701.4821,136.6456l-1.06.1271q-3.2762,20.0187-6.5532,40.0373-3.29,20.063-6.5934,40.124c-2.1764,13.2487-4.8127,26.4329-6.3264,39.3264,5.949,0,11.1673-.0489,16.3841.02,2.6734.0354,4.1314-.979,4.0047-3.8085-.0486-1.0853.0024-2.175.0038-3.2627q.0711-51.3954.14-102.7909Q701.4881,141.5321,701.4821,136.6456ZM706.0943,856.11a6.3074,6.3074,0,0,0,1.7891.5959c7.9313-.3307,15.8672-.6166,23.7829-1.18a4.2771,4.2771,0,0,0,2.9527-2.48c.574-1.7164.3489-3.7.48-5.8723l-29.0045,1.4994ZM424.5291,609.4859c-.8254-9.2105-1.5448-17.4409-2.3148-25.6666a2.6164,2.6164,0,0,0-2.9689-2.5049c-1.7165.0306-3.43.2026-5.8623.3587.9553,8.7047,1.7645,16.7469,2.8173,24.7571a3.9663,3.9663,0,0,0,2.4786,2.402C420.3058,609.3483,422.1253,609.2571,424.5291,609.4859Zm569.9585-32.8341c0-8.0167.0177-15.3823-.0118-22.7478a2.901,2.901,0,0,0-3.02-3.13c-1.7131-.1064-3.4379-.0225-5.5442-.0225,0,4.7039-.11,8.8282.03,12.9439.1452,4.2542-.69,8.5848.663,12.9568ZM701.07,276.3115c-7.07,0-13.69-.1281-20.3016.0635-2.6235.076-4.32,1.7052-4.2593,4.5944.0289,1.3757.1281,2.75.2011,4.2391a14.8516,14.8516,0,0,0,2.4344.3229c5.9249-.3159,11.8472-.6806,17.7708-1.0221,3.99-.23,4.3022-.5088,4.4128-4.4167C701.3582,279.025,701.1889,277.9518,701.07,276.3115ZM904.117,777.0735l3.9451-4.7771-5.2875-5.6132c-1.6354,1.5962-2.9127,2.8427-4.109,4.01ZM486.1941,372.6077a69.1151,69.1151,0,0,0,4.9747,5.081,2.6138,2.6138,0,0,0,4.1259-1.6715c.3124-1.6937-3.5967-5.9267-6.2629-5.9347ZM914.83,366.2232c-4.2451-3.6064-6.7987-3.21-8.8075.366a3.3858,3.3858,0,0,0,.3368,3.2045,3.5173,3.5173,0,0,0,3.227.19A41.753,41.753,0,0,0,914.83,366.2232ZM512.36,773.8451a35.8421,35.8421,0,0,0-3.32,4.718c-.38.7964-.3689,2.38.1541,2.8625.7589.6995,2.39,1.2808,3.2026.9164,1.5428-.692,2.7688-2.09,4.4758-3.4794Z" transform="translate(-159.7016 -42.005)" fill="#82bdea"/>
    <path d="M194.1478,604.3507l-5.5968-28.209-1.2115.0177c-.8541,3.9681-1.6607,7.9472-2.575,11.9014-.9794,4.2361-1.8714,8.5091-3.1946,12.64a7.1491,7.1491,0,0,1-3.248,3.9492c-3.2612,1.5565-5.8318.1061-6.7823-3.64-2.139-8.43-4.099-16.906-6.1385-25.3616-.2549-1.0567-.5849-2.0959-.8194-3.1567-.69-3.1231-.8763-6.4992-4.88-7.75,3.3961-2.5784,9.0288-2.8128,14.5359-.827-3.9986,3.025-2.1192,6.7306-1.45,10.2969q1.7045,9.0784,3.5511,18.13a33.2644,33.2644,0,0,0,1.6371,4.2877c2.504-11.7239,4.8041-22.4935,7.1318-33.392,1.6292-.1812,2.8519-.3674,4.0814-.4436,2.5809-.16,3.9534.9605,4.4439,3.6361,1.6982,9.2637,3.5694,18.4957,5.39,27.7369a26.66,26.66,0,0,0,.9091,2.5265c.9029-3.1414,1.672-5.2852,2.1243-7.4939,1.199-5.8552,2.4951-11.7083,3.2569-17.6261.2853-2.217-.7994-4.6105-1.3731-7.4947,3.0794-2.6584,7.0629-.4884,11.3133-1.2585-.284,1.6542-.1446,3.1893-.6609,3.4563-2.7255,1.4094-2.83,4.1062-3.454,6.469-2.3121,8.76-4.3465,17.5945-6.7545,26.3269C202.6182,605.4767,201.608,605.87,194.1478,604.3507Z" transform="translate(-159.7016 -42.005)" fill="#84bee9"/>
    <path d="M680.8568,44.1417c3.8055-2.1572,7.43-1.51,10.91-1.2717,1.0323.0709,2.1749,1.71,2.88,2.8661,5.2861,8.6658,10.4729,17.392,15.7,26.0937a4.494,4.494,0,0,0,1.639,1.6538c.4111-7.114.7834-14.1944-.0977-21.2555-.33-2.6475.5071-5.8489-3.2065-7.3436-1.0843-.4364-.6349-2.7666.9064-2.8316,3.9248-.1655,7.87.1373,11.8048.31.1445.0063.2626.6144.5688,1.384-4.6338,1.3693-4.284,5.1315-4.1225,8.9315.37,8.69.6267,17.3855.902,26.08.0613,1.9345.009,3.8725.009,5.6313-7.2973,1.71-7.853,1.6406-11.0907-3.423-4.88-7.632-9.564-15.3893-14.3392-23.0885a5.4821,5.4821,0,0,0-2.605-2.3836c0,1.3327-.0533,2.668.01,3.9977.2392,5.065.539,10.1271.7706,15.1924.1571,3.438-.8343,7.2552,3.6485,8.9579-3.6039,3.2131-10.4305,3.3861-14.0831.3426l3.8919-2.8383c0-9.4079.1379-19.0086-.08-28.6012C684.8031,49.4736,684.68,46.0162,680.8568,44.1417Z" transform="translate(-159.7016 -42.005)" fill="#86beeb"/>
    <path d="M1209.4554,578.9814v15.6871c6.5292,1.6334,12.648-.4776,18.849-1.0487,2.42,3.6373,1.9263,5.7655-1.7266,5.8518-8.88.2092-17.77.0653-26.6538-.0453-.6833-.0086-1.3559-.8731-2.7068-1.8036,4.8609-1.9727,4.6669-5.6525,4.5951-9.4623-.1366-7.2515-.1024-14.5091.0268-21.7613.0556-3.125.0692-6.0486-4.8723-7.7385,2.3752-1.1426,3.486-2.0838,4.6538-2.1609,3.25-.2147,6.5253-.1486,9.7863-.0488,4.3391.1327,8.6723.4534,13.0112.6,5.4882.1851,5.8512.7559,3.47,6.3121-5.8653-1.2883-11.8-2.9485-18.2839-1.47v12.6586c3.7475.0452,7.475-.0012,11.192.175,1.7682.0838,4.61-.9786,4.61,2.1255,0,3.14-2.8623,2.0068-4.6085,2.0827C1217.2131,579.09,1213.6168,578.9814,1209.4554,578.9814Z" transform="translate(-159.7016 -42.005)" fill="#88c0ea"/>
    <path d="M692.2418,1114.5854a77.59,77.59,0,0,0,8.2037,2.3309,21.8,21.8,0,0,0,6.9981.1081c2.4132-.37,4.4674-1.7609,4.792-4.5151a5.7843,5.7843,0,0,0-2.8818-6.0208,52.009,52.009,0,0,0-5.9407-2.6593c-2.3377-.9815-4.7869-1.7378-7.0285-2.8992a9.7154,9.7154,0,0,1-5.6718-9.7278,10.474,10.474,0,0,1,6.8884-9.61c5.369-2.2308,11.1043-1.66,16.652-.8882,3.418.4753,3.7732,2.8881,1.2743,6.49-2.7082-.69-5.4745-1.504-8.2907-2.07a13.912,13.912,0,0,0-4.8328-.2434c-1.9939.3195-3.862,1.2068-4.3066,3.5659-.4617,2.45-.35,4.8593,1.9507,6.336a37.7919,37.7919,0,0,0,5.8468,2.84c2.17.91,4.4822,1.4987,6.6043,2.4991,5.0812,2.3957,6.7276,5.3219,6.3713,10.8188-.3252,5.0162-2.75,8.7583-7.94,9.6673a71.9654,71.9654,0,0,1-16.7046.6859C690.344,1121.0547,689.8632,1118.78,692.2418,1114.5854Z" transform="translate(-159.7016 -42.005)" fill="#85beea"/>
    <path d="M730.8425,875.4237c-8.1212,49.141-16.1245,97.5695-24.1279,145.9979l-.7152-.0924" transform="translate(-159.7016 -42.005)" fill="#fbfdfe"/>
    <path d="M394.1154,581.5705c.72,7.6822,1.4192,15.1385,2.2082,23.5554" transform="translate(-159.7016 -42.005)" fill="#f7fbfe"/>
    <path d="M259.3515,581.5705" transform="translate(-159.7016 -42.005)" fill="#f7fbfe"/>
    <path d="M919.6971,793.0761c-1.35-1.3546-1.7742-2.7672-.1158-4.1674,1.4631-1.2354,2.7491-.5733,3.7545.6537" transform="translate(-159.7016 -42.005)" fill="#e9f3fb"/>
    <path d="M945.9059,817.2308c-.16.2066-.3245.4023-.4976.591a12.106,12.106,0,0,1-2.7455-1.5782" transform="translate(-159.7016 -42.005)" fill="#e9f3fb"/>
    <path d="M940.6592,336.2224c.991-.8291,2.5748-.95,3.8856-1.3968l-.0476-.0413c-5.4922,5.4178-10.9756,10.8446-16.516,16.2127-.1789.1733-.94-.2541-2.0945-.6016a27.1315,27.1315,0,0,1,2.6393-3.3888" transform="translate(-159.7016 -42.005)" fill="#d9ecf9"/>
    <path d="M914.83,366.2232a41.753,41.753,0,0,1-5.2437,3.76,3.5173,3.5173,0,0,1-3.227-.19" transform="translate(-159.7016 -42.005)" fill="#e9f3fb"/>
    <path d="M946.896,817.4648c3.417,3.0509,6.7715,6.1556,8.8078,10.4439-3.7351-2.1537-7.04-4.7258-9.0409-8.6857Q946.7792,818.3413,946.896,817.4648Z" transform="translate(-159.7016 -42.005)" fill="#badbf4"/>
    <path d="M470.5355,818.8127c-2.3176,2.4506-4.0727,5.5782-7.727,6.42l-.004-.0053c.8363-3.3193,3.1649-5.2451,6.14-6.5715C469.4774,818.7082,470.0065,818.76,470.5355,818.8127Z" transform="translate(-159.7016 -42.005)" fill="#badbf4"/>
    <path d="M945.6045,332.5838l2.1581-1.0851.0521.0527q-1.0926,1.0937-2.1853,2.1871Q945.6167,333.1609,945.6045,332.5838Z" transform="translate(-159.7016 -42.005)" fill="#badbf4"/>
    <path d="M456.2782,336.97q1.131,1.05,2.264,2.0989l-.1568.1418q-1.0631-1.1122-2.1244-2.2262Z" transform="translate(-159.7016 -42.005)" fill="#d9ecf9"/>
    <path d="M945.6045,332.5838q.0124.5772.0249,1.1547-.5658.5232-1.132,1.0458l.0474.0413Q945.0751,333.7051,945.6045,332.5838Z" transform="translate(-159.7016 -42.005)" fill="#d9ecf9"/>
    <path d="M456.261,336.9845l-1.0521-2.2077-.05.0512q.56,1.0712,1.1192,2.1421Z" transform="translate(-159.7016 -42.005)" fill="#d9ecf9"/>
    <path d="M949.9505,329.3381q-.54.5457-1.081,1.0915l.02.02q.5457-.5406,1.0915-1.0814Z" transform="translate(-159.7016 -42.005)" fill="#badbf4"/>
    <path d="M451.9258,331.5036l-.4335-.2046.3893.2483Z" transform="translate(-159.7016 -42.005)" fill="#d9ecf9"/>
    <path d="M951.0773,328.2754l.2247-.4665q-.1295.2163-.2588.4326Z" transform="translate(-159.7016 -42.005)" fill="#badbf4"/>
    <path d="M947.7626,331.4987l1.1267-1.0493-.02-.02q-.5277.5605-1.0551,1.1216Z" transform="translate(-159.7016 -42.005)" fill="#badbf4"/>
    <path d="M451.8816,331.5473q.5435.5462,1.0871,1.0922l.05-.05-1.0933-1.0861Z" transform="translate(-159.7016 -42.005)" fill="#d9ecf9"/>
    <path d="M454.11,333.6787q-.5455-.5443-1.091-1.0889l-.05.05,1.0892,1.0906Z" transform="translate(-159.7016 -42.005)" fill="#d9ecf9"/>
    <path d="M455.2089,334.7768l-1.0987-1.098-.0523.0513,1.1009,1.0977Z" transform="translate(-159.7016 -42.005)" fill="#d9ecf9"/>
    <path d="M471.7033,816.694c-.3564.3579-.7126.7158-1.0724,1.0712l-.3046-.2586q.541-.55,1.081-1.1019Z" transform="translate(-159.7016 -42.005)" fill="#e9f3fb"/>
    <path d="M470.5355,818.8127c-.529-.0523-1.0581-.1045-1.5912-.1568.4588-.3824.9216-.7648,1.3832-1.1483l.3034.2576A3.3856,3.3856,0,0,1,470.5355,818.8127Z" transform="translate(-159.7016 -42.005)" fill="#e9f3fb"/>
    <path d="M946.896,817.4648q-.1167.8778-.2331,1.7582-.6254-.7-1.253-1.403c.1715-.1869.3364-.3826.496-.5892C946.24,817.2971,946.5692,817.3764,946.896,817.4648Z" transform="translate(-159.7016 -42.005)" fill="#e9f3fb"/>
    <path d="M461.7213,826.3226q.5415-.5476,1.0832-1.0952l.004.0053-1.0942,1.084Z" transform="translate(-159.7016 -42.005)" fill="#badbf4"/>
    <path d="M461.7143,826.3167l-1.0988,1.0774.028.028,1.0777-1.1Z" transform="translate(-159.7016 -42.005)" fill="#badbf4"/>
    <path d="M460.6155,827.3941l-.247.4631.2749-.4352Z" transform="translate(-159.7016 -42.005)" fill="#badbf4"/>
    <path d="M951.0432,328.2415q-.5463.5483-1.0926,1.0966l.03.03,1.0961-1.0928Z" transform="translate(-159.7016 -42.005)" fill="#badbf4"/>
  </g>
</svg>
