<svg id="Layer_1" data-name="Layer 1" xmlns="http://www.w3.org/2000/svg" xmlns:xlink="http://www.w3.org/1999/xlink" viewBox="0 0 1366 768"><defs><linearGradient id="linear-gradient" x1="65" y1="381.34" x2="1304.33" y2="381.34" gradientUnits="userSpaceOnUse"><stop offset="0.01" stop-color="#005b97"/><stop offset="0.13" stop-color="#0075be"/><stop offset="0.43" stop-color="#1e9cd7"/><stop offset="0.54" stop-color="#47acde"/><stop offset="0.69" stop-color="#80c2e7"/><stop offset="0.83" stop-color="#a9d2ee"/><stop offset="0.94" stop-color="#c3dcf2"/><stop offset="1" stop-color="#cce0f4"/></linearGradient></defs><path d="M665,757s-59-4-58-47l-23-28s-24-74-63-37l-8,14s-31-9-35-20-5-31-5-31-36-30-37-38l-44-6v13s-59-6-77-13-85-48-85-48v-6l-57-9s2-35-22-37v-8s-21-19-28-22-19-5-19-5,10-17,6-24-13-15-16-24-7-19-7-19,12-6,9-9-8-3-9-11,4-18,0-24-9-9-9-16-7-10-7-17,5-26,5-32-11-15-11-15,19-24,19-33,1-32,2-39,11-18,20-38,22-55,22-55-2-3,1-9,7-11,5-18-2-9-3-19-1-20-1-20,26,27,38,10c0,0-1,17,7,14l1-31S555,89,712,73c0,0-3-13,3-13s11,1,11,6-8,14,0,16,9,4,18,4,11-4,20,0,15,5,21,7,8,6,15,4,18,0,18,0l14,1s-16,10-22,11-10-3-12,7-2,14-9,16-13,8-7,8,25-9,25-9-7,9-3,10,19-4,28-5,8-10,18-16a196.85,196.85,0,0,1,19-10s5-2-5,9-16,17-8,14,5-5,14,1,4,4,21,2,20-7,28-7,8,7,8,7,16-3,18-4-7,12,4,14-25,3-29,2-21,9-24,9h-7l-5,6s-15,29-15,31,7,1,9-3,10-18,10-18-17,62-11,81,17,29,17,29,33-14,12-57c0,0,0-23,3-32s6-17,9-21-2,15,1,14,4,7,8-16l8-2s-11-8-7-10,7-4,16-1,21,2,22,5-1,13,0,17,2,12,0,16-7,5-7,9-3,10,2,10,10-6,10-6,6-15,9-12,11,12,11,16,7,19,4,24-8,1-9,9-7,19-7,19-6,6-1,7,21,3,21,3h9s59-37,64-49-11-18-7-19,21-1,21-1,20-2,27-6,18-5,15-14-13-8-11-12,20-19,20-23-3-9,5-9,71-13,71-18-5-9,0-9h13s-3-14,6-18c0,0-4-31,0-37s7-19,7-19,6,9,10,7,1-7,9-7a19.62,19.62,0,0,1,13,5s6,42,11,41,14-5,13-1,0,11,0,11,18-2,4,17c0,0-8,8-15,7,0,0,4,13,2,11s-7-6-7-6l-6,13s9-10-3-15c0,0,0,20-3,21s-9,5-9,5l-10,3s-8,39-5,43,13,12,13,12l6,2s8,1,7-1-6-7-6-7-1-2,1-2,5,3,5,3l2,3,1,3v4l-4,2-5,3-3,2s1,2-1,2-2-3-2-3l-1-4s-2-2-3,1l-2,6-1,4s-8,4-12,5-10,1-22,9-19,13-21,17-8,11-7,12,8,1,8,1,4,12,0,22-13,27-14,26,1,0-1-4-9-5-9-5l-5-2a54.36,54.36,0,0,0,4,8c2,3,10,9,11,11s-1,27-3,32-5,20-7,19-3,0-3-7-1-10,0-15,5-7,0-10-6-2-5,1,6,4,3,5-4,2-6-2-6-4-6-10a164.61,164.61,0,0,0-2-21c-1-7-1-14-3-6s-4,9-3,16a47.9,47.9,0,0,0,4,13l3,9,5,5,2,12-1,5,4,7,3,5s2-1,5,1,7,12,7,12l8,10s4,4,1,5-6,5-6,5l-6,1s0,1,4,1a13.83,13.83,0,0,0,7-2,5.64,5.64,0,0,1,0,6c-2,3-2,6-6,6a29.56,29.56,0,0,0-9,2s-2,3-2,5-3,5-3,5-2,2,2,2a29.56,29.56,0,0,0,9-2s-1,6-11,11-19,10-20,12-4,3-4,6,1,8,0,9-3,0-7,1-5-1-9,4-6,3-7,10-4,11-4,13-17,18-17,18l-6,7h-3l-2,7-5,6-5,4-2,5-1,5-1,5v24c0,5,3,18,6,23s8,18,12,21,17,16,17,16-6,1-5,4,16,26,16,26,7,11,7,14,3,14,3,14v20s0,9-1,14-2,9-4,11a50,50,0,0,1-7,5l-4,5s-2,3-3,1,0-5,1-6,6-3,6-3l4-4,1-2s3-3,1-3-3-3-5-1a28.77,28.77,0,0,1-6,4l-5,1-4-8-5-7-5-5-7-1-5-6v-7l-4-1-3,3s-19-25-19-27-1-4,0-6,2-1,3-4,7-5,2-6-7-4-7-1v9s-1,3-2,0l-3-9s2-22,1-27-2-9-6-9-3,3-8,0-12-15-15-16-4-4-9-4-6-3-8-1-14,15-19,15a19.11,19.11,0,0,1-12-5c-2-2-7-6-7-6s1-4-3-4H930s-16,8-18,6-1-6-2-8-1-4-4-4-3,6-3,6l-1,4s-18-2-24-1-13,6-13,6-4,4-4,8,2,8,4,4,2-7,4-7,4-1,4,3-2,8-3,8-6,4-6,4l8,3s10,1,11,3,2,5,0,6-2,5-7,3-13-8-13-8l-3-3s-2-1-3,2-2,8-2,8-2,4-4,4a10.34,10.34,0,0,1-4-1s4-2,4-3-1-5-3-4a59.23,59.23,0,0,0-6,4s0,4-5,4-10-5-10-5l-4-7s-4-7-8-7-3-2-8-2-11,0-8,2,5,3,8,3,5,1,5,2,1,2-3,2a29.56,29.56,0,0,1-9-2s-8-2-12-2-26-3-33-2-28,13-32,19-37,26-40,27-19,11-19,11Z" fill="url(#linear-gradient)"/></svg>