<svg viewBox="0 0 1366 768" xmlns="http://www.w3.org/2000/svg" xmlns:xlink="http://www.w3.org/1999/xlink"><linearGradient id="a" gradientUnits="userSpaceOnUse" x1="966.5" x2="976.5" y1="745.5" y2="745.5"><stop offset=".01" stop-color="#005b97"/><stop offset=".13" stop-color="#0075be"/><stop offset=".43" stop-color="#1e9cd7"/><stop offset=".54" stop-color="#47acde"/><stop offset=".69" stop-color="#80c2e7"/><stop offset=".83" stop-color="#a9d2ee"/><stop offset=".94" stop-color="#c3dcf2"/><stop offset="1" stop-color="#cce0f4"/></linearGradient><linearGradient id="b" x1="961.5" x2="1093.96" xlink:href="#a" y1="684.85" y2="684.85"/><linearGradient id="c" x1="961.5" x2="1016.5" xlink:href="#a" y1="646.5" y2="646.5"/><linearGradient id="d" x1="924.25" x2="956.5" xlink:href="#a" y1="672.58" y2="672.58"/><linearGradient id="e" x1="1130.5" x2="1252.9" xlink:href="#a" y1="714.93" y2="714.93"/><linearGradient id="f" x1="93.5" x2="1262.5" xlink:href="#a" y1="351.12" y2="351.12"/><path d="m966.5 743.5c0 3 6 4 6 4l4 3v-10s-10 0-10 3z" fill="url(#a)"/><path d="m1091.5 669.5c-1-7-5 2-6 8s-2 8-10 7-1-4-8-5-4-3-9-6-3-5-3-11-2-8-3-12-5 4-9 5-1-6-3-8-9 7-12 7-7 4-9 7-8 3-9 3-5 8-5 8l-6 12-13 16-5 3h-20l2 8 8 8 7 3h8l4-8s6-3 9-4 7 0 10-3 23 0 27 0 22 0 30 1 20 1 25 0 1-8 0-17 1-15 0-22z" fill="url(#b)"/><path d="m986.5 656.5 5-9h8s13-8 17-11l-12-8-6 6-6 6-10 7s-11 10-16 10-5 3-5 3l5 4 10-2z" fill="url(#c)"/><path d="m940.5 669.5c-3 0-11 3-14 8s-3 4 0 5 6-3 8-6 10 1 15 0 7 0 7 0v-14l-7 4s-6 3-9 3z" fill="url(#d)"/><path d="m1226.5 680.5c-3 0-5 2-4 3a61.25 61.25 0 0 0 6 4s6 6 3 11-7 13-9 14-5 6-7 7-7 4-4 4 6-2 9-4 4-4 5-4 9 2 8 3-1 2-5 3-11 5-11 5-5 4-6 3-1-4-3-4-31-3-34-1-4 1-4 2 4 0 4 1 0 5-2 5-10-2-11-3-2-5-4-5a19.52 19.52 0 0 1 -7-1c-3-1-6-4-9-5s-8-2-8-4-3-2-2-3 5-2 6-1 4 2 5 0 2-7-3-6-8 0-8 2 1 1 0 3a10 10 0 0 0 -1 4s36 30 57 32 45 7 60 1-6-42-6-42-12-24-15-24z" fill="url(#e)"/><path d="m1247.5 466.5c-15-52-41-67-47-71s-24-7-26-7-14 1-16 2-5 5-5 7 0 5 1 6 2-2 4-3 4 10 5 13 3 4 7 6 4-1 7-2 1-7 1-7a14.09 14.09 0 0 1 -5 3c-3 1-2 0-4-3s3-5 5-10 5-2 14-1 16 18 18 20 2 8 2 11v24l1 6v8s1 4 3 6 1-6 1-6v-5s0-7 1-9 8-1 8-1a29.54 29.54 0 0 1 3 6c1 3 1 2 3 4s4 0 6 2 0 2-4 2-3 0-3 2 4 5 4 6v15c0 3 3 1 3 1s0 5-3 19-51 19-51 19-11 3-14 3-17 15-17 15h-7s-10 1-13 1-5-2-5-4 5-1 9-1h10c2 0 0-3-2-5s-30 0-30 0c-28-2-52-32-52-32 2-2 2-22 1-30s-3-10-4-17-8-7-10-10-11 1-15 1-6-7-9-11 4-7 7-12 8-1 8-4-4-6-7-9-5-11-5-14 1-6 1-10-8-10-8-10l-11-13-5-12-2-5v-12c0-5-5-4-9-8s-5-7-7-11-4 0-7-1-2-3-6-5-8-2-12-2-2-4-5-5-3-5-6-7-4 1-2 3 0 6 0 9 0 9 1 10 4 0 6-3 3 0 6 0-1 14-1 14h-20l-6-2-1-12s-8 5-8 2 4-8 4-8-9 3-13 0-7-10-7-10l-1-3h-9l-1 14 1-15a37.84 37.84 0 0 0 1-8c0-4 0-4 3-3s1 4 1 7a15.21 15.21 0 0 0 .45 4.34l3.55-.34s0 1 1-2 2-4 2-7-2-8-2-10-2-7-6-10 4-4 6-5 3 3 5 5a15.28 15.28 0 0 1 4 10c0 4 6 2 6 1v-8l-1-6a30.16 30.16 0 0 1 -6-14c-1-8 7-8 7-8l-1.91-5.19a17.28 17.28 0 0 1 5.91-2.81c5-1 11-4 18-6s7 2 12 3 3-2-3-6-3-3 3-5 4-1 8-3 0-5-3-7 5-5 2-7-8 0-12-3 3-4 9-7 9-1 12 1 1 2 5 0-3-2 0-6 6 0 10-5 13-1 19-3 4-3 7-9 3 0 4 4-1 5 3 5 3-5 5-10 5-8 11-13 10-5 7-6-4-5-6-6a25.44 25.44 0 0 0 -7-2c-1 0 0-11-3-12s-7 5-11 9-7 5-14 5-7-2-7-2l-6-7-6-4s-7-1-7-3 7-4 9-6-5-5-6-7-3-4-6-7l-3-15-3-13v-32l-13 11c-4-14-24-10-24-10l-18 8h-13c-13 2-14 26-14 26-29-15-37 3-37 3l-2 26a20.42 20.42 0 0 0 -18-4s-1 0 1.82 19.76l-2.82-19.76-17 20-193-7-121.74-4c-.06-.3-.15-.34-.26 0-1 3-239-6-239-6l-81-2-82 280 5 15 143 5 79 3v15h14c7-12 6-16 6-16l46 2c7 10 14 0 14 0h124v3h9v-3l9 1 108 3 1 8 76-2v-3h58v13.5l-1 .51v34h15v36c0 6 2 11 7 15s15 8 15 8l23 34h6v5l16 2v11s-3 9-3 13 6 18 6 18v28l8 2c8 2 3-6 7-9s4 3 9 9 3 8 8 7 0-9 0-12 9-2 14-2 0-6 0-10-9-4-11-8 6-3 12 0 0 11 6 14 4-4 8-8 1-7 0-11-1-3-4-6 4-1 7-3-1-4 0-8 3 4 7 4 0-6-2-11 5-4 10-5 2 8 3 14 3 8 7 9 0-5 3-7 4 4 8 3 0-4 0-7-7-1-8-1-4-4-5-7 5-5 5-5l-15-56 16 59a28.89 28.89 0 0 1 10 0c5 1 2-1 3-5s-3-3-3-7 7 3 7 3l8 6c4 3 1-9 0-14s5-5 7-4 5 0 7-4 0-7 0-11-3-7-2-12 3 5 7 7 5 0 5-2 5 3 7 6 6-4 6-8l7 2s1 5 0 8-6 3-9 3-3 9 0 10 4-3 5-4 3 5 0 8-4 0-5 3 7 0 9 3-3 2-7 3 0 9 0 9v13s1 13 0 18-12 8-12 8l10 8s5-8 13-12 27-1 27-1v-6c0-2-2 0-4 0s2-3 2-3 3-4 6-5 2 1 3 4-2 5-3 6 2 4 5 4 8-3 8-3 13-17 14-19-2-2-2-2l5-6 5 1s3 3 4 3 4-3 7-4 1-3 1-3l8-5 9 1s1 4 4 4 9-5 9-5l4-5s7 0 7 2-4 4-5 6-1 6-1 7 4-2 4-2l6-6 9-5 8-4h12l17-4s14-3 17-4 15-1 16-1 5 5 8 6 1 4 0 8-3 4-5 6-1 6-1 10-2 9-3 13-2 4-4 5-1 3 2 4 3-1 5-4a46.71 46.71 0 0 0 5-10 37.3 37.3 0 0 0 2-12c0-5 3-5 3-8s5-14 5-16 2-5 2-5v-6l-1-5s-1-8-1-9-2-3-5-3-5 1-8 3-3 0-4-1 2-3 3-4 5 0 7-1 0-4 1-8 2-3 2-3l5-1 2 3v15l2 9 3 1v-18s0-17.01-15-69.01z" fill="url(#f)"/></svg>